<svg width="48" height="49" viewBox="0 0 48 49" fill="none" xmlns="http://www.w3.org/2000/svg">
<g clip-path="url(#clip0_1_77)">
<rect width="48" height="49" fill="white"/>
<rect x="2.5" y="3.5" width="43" height="42" stroke="#333366" stroke-width="3"/>
<path d="M16.5 15.5H27C28.75 15.5 30.0167 15.9 30.8 16.7C31.6 17.4833 32 18.75 32 20.5V22.75C32 24.1333 31.7667 25.2083 31.3 25.975C30.85 26.7417 30.125 27.25 29.125 27.5L32.25 33H27.375L24.5 27.75H21V33H16.5V15.5ZM27.5 20.5C27.5 19.5 27 19 26 19H21V24.25H26C27 24.25 27.5 23.75 27.5 22.75V20.5Z" fill="#333366"/>
</g>
<defs>
<clipPath id="clip0_1_77">
<rect width="48" height="49" fill="white"/>
</clipPath>
</defs>
</svg>
